<?xml version="1.0" encoding="UTF-8" standalone="no"?><!DOCTYPE svg PUBLIC "-//W3C//DTD SVG 1.1//EN" "http://www.w3.org/Graphics/SVG/1.1/DTD/svg11.dtd"><svg width="100%" height="100%" viewBox="0 0 5015 1263" version="1.1" xmlns="http://www.w3.org/2000/svg" xmlns:xlink="http://www.w3.org/1999/xlink" xml:space="preserve" xmlns:serif="http://www.serif.com/" style="fill-rule:evenodd;clip-rule:evenodd;stroke-linejoin:round;stroke-miterlimit:2;"><g><g><path d="M2086.62,960.77c47.914,0 127.12,-20.547 127.12,-128.527c0,-108.458 -79.695,-129.96 -127.12,-129.96l-77.74,0l-0,258.487l77.74,0Zm-133.965,-303.878l139.343,-0c106.585,-0 178.456,60.681 178.456,174.872c0,113.716 -71.381,175.351 -178.456,174.873l-139.343,0l0,-349.745Z" style="fill:#fff;fill-rule:nonzero;"/><path d="M2312.49,981.793l0,-224.565l25.422,-0c14.67,-0 25.425,10.513 25.425,24.846l0,224.563l-25.425,-0c-14.667,-0 -25.422,-10.513 -25.422,-24.844m25.422,-315.345c18.09,-0 31.292,13.379 31.292,29.623c0,16.722 -12.712,30.58 -31.292,30.58c-18.576,-0 -31.778,-13.858 -31.778,-30.58c-0,-15.765 13.202,-29.623 31.778,-29.623" style="fill:#fff;fill-rule:nonzero;"/><path d="M2445.97,1006.64l-25.912,0l0,-249.409l25.912,0c14.667,0 25.425,10.513 25.425,24.844l-0,13.38c18.576,-21.024 48.403,-42.522 90.939,-42.522c57.204,-0 97.293,40.133 97.293,104.635l0,149.072l-25.911,0c-14.667,0 -25.425,-10.513 -25.425,-24.843l-0,-114.673c-0,-43.956 -23.468,-68.322 -63.071,-68.322c-44.491,0 -73.825,30.577 -73.825,72.145l-0,110.85c-0,14.33 -10.758,24.843 -25.425,24.843" style="fill:#fff;fill-rule:nonzero;"/><path d="M2800.91,971.28c28.356,0 71.381,-16.243 71.381,-60.2l0,-13.858c-22.002,-7.643 -38.624,-11.466 -63.559,-11.466c-43.026,-0 -66.004,18.631 -66.004,43.959c-0,28.664 29.823,41.565 58.182,41.565m72.36,14.812l0,-15.768c-19.558,31.058 -52.315,40.136 -86.051,40.136c-54.27,-0 -95.339,-27.713 -95.339,-78.359c0,-50.644 46.935,-81.224 106.586,-81.224c27.377,0 48.403,4.302 73.825,11.945c0,-46.823 -23.956,-66.414 -66.493,-66.414c-19.066,-0 -38.135,4.301 -55.738,10.034c-15.154,4.777 -30.8,-0.956 -34.223,-17.2l-2.933,-14.336c11.734,-6.211 48.893,-22.933 97.296,-22.933c78.716,-0 112.939,42.046 112.939,110.371l-0,144.293l-28.356,-0c-13.691,-0 -21.513,-8.6 -21.513,-20.545" style="fill:#fff;fill-rule:nonzero;"/><path d="M2996.97,1006.64l-25.912,0l0,-249.409l25.912,0c14.667,0 25.425,10.513 25.425,24.844l0,11.948c16.625,-20.07 42.534,-41.09 80.668,-41.09c36.18,-0 66.007,19.113 80.674,49.211c17.112,-21.976 44.491,-49.211 91.919,-49.211c55.246,-0 91.915,40.133 91.915,100.336l0,153.371l-25.911,0c-14.67,0 -25.425,-10.513 -25.425,-24.843l-0,-121.363c-0,-37.266 -21.024,-61.632 -57.204,-61.632c-36.669,0 -64.539,29.621 -64.539,72.624l0,135.214l-25.911,0c-14.667,0 -25.425,-10.513 -25.425,-24.843l-0,-119.928c-0,-38.701 -21.513,-63.067 -55.736,-63.067c-41.068,0 -65.025,41.087 -65.025,74.058l0,108.937c0,14.33 -10.758,24.843 -25.425,24.843" style="fill:#fff;fill-rule:nonzero;"/><path d="M3421.34,981.793l-0,-224.565l25.425,-0c14.667,-0 25.425,10.513 25.425,24.846l-0,224.563l-25.425,-0c-14.667,-0 -25.425,-10.513 -25.425,-24.844m25.425,-315.345c18.09,-0 31.292,13.379 31.292,29.623c-0,16.722 -12.713,30.58 -31.292,30.58c-18.58,-0 -31.779,-13.858 -31.779,-30.58c0,-15.765 13.199,-29.623 31.779,-29.623" style="fill:#fff;fill-rule:nonzero;"/><path d="M3643.31,752.451c57.693,-0 95.831,28.191 111.474,64.501l-20.534,10.992c-14.178,7.643 -24.446,1.434 -30.8,-4.78c-11.736,-13.377 -30.802,-24.844 -59.65,-24.844c-44.981,0 -79.696,34.4 -79.696,84.569c0,50.168 34.715,82.658 79.696,82.658c28.848,-0 47.424,-12.902 60.14,-25.322c5.864,-6.212 16.132,-10.989 30.31,-3.823l21.023,10.991c-16.132,37.267 -53.291,64.023 -111.473,64.023c-74.805,0 -131.519,-54.469 -131.519,-128.527c0,-73.58 57.204,-130.438 131.029,-130.438" style="fill:#fff;fill-rule:nonzero;"/><path d="M4004.61,899.135l-73.826,-153.85l-73.338,153.85l147.164,-0Zm-82.626,-242.244l17.601,0l177.967,349.746l-40.092,-0c-14.178,-0 -25.423,-6.687 -31.779,-19.114l-22.981,-47.298l-183.345,-0l-23.47,47.298c-5.864,12.427 -17.601,19.114 -31.778,19.114l-39.603,-0l177.48,-349.746Z" style="fill:#fff;fill-rule:nonzero;"/><path d="M4277.91,851.356c52.802,-0 81.161,-32.49 81.161,-72.626c-0,-41.09 -29.338,-75.969 -83.118,-75.969l-87.028,0l0,148.595l88.985,-0Zm-145.212,-194.464l145.212,-0c90.937,-0 137.386,53.991 137.386,121.838c-0,67.371 -46.449,117.536 -136.407,117.536l-89.964,-0l0,82.18c0,17.203 -11.244,28.191 -28.355,28.191l-27.872,0l-0,-349.745Z" style="fill:#fff;fill-rule:nonzero;"/><path d="M4588.37,851.356c52.802,-0 81.16,-32.49 81.16,-72.626c0,-41.09 -29.337,-75.969 -83.118,-75.969l-87.027,0l-0,148.595l88.985,-0Zm-145.213,-194.464l145.213,-0c90.936,-0 137.385,53.991 137.385,121.838c-0,67.371 -46.449,117.536 -136.407,117.536l-89.963,-0l-0,82.18c-0,17.203 -11.245,28.191 -28.356,28.191l-27.872,0l-0,-349.745Z" style="fill:#fff;fill-rule:nonzero;"/><path d="M4733.08,965.546l12.223,-17.2c9.29,-13.855 23.468,-15.287 39.114,-7.166c27.869,15.288 61.115,25.801 94.849,25.801c50.85,-0 79.205,-21.98 79.205,-55.424c0,-40.614 -42.047,-48.736 -90.447,-58.293c-42.539,-8.121 -134.944,-18.156 -134.944,-97.945c-0,-79.791 74.804,-104.162 132.987,-104.162c52.312,0 93.383,15.771 127.119,40.136l-12.223,16.722c-9.29,13.858 -23.957,16.246 -39.113,9.078c-25.426,-12.423 -50.361,-19.11 -78.717,-19.11c-29.827,0 -73.828,11.945 -73.828,54.945c-0,41.571 60.629,48.258 100.229,55.423c52.805,8.6 125.165,22.458 125.165,101.293c0,69.757 -54.759,104.16 -133.476,104.16c-66.007,-0 -110.498,-19.589 -148.143,-48.258" style="fill:#fff;fill-rule:nonzero;"/><path d="M2131.02,1246.51l4.045,-5.693c3.072,-4.585 7.767,-5.06 12.944,-2.372c9.223,5.06 20.227,8.541 31.391,8.541c16.83,-0 26.212,-7.273 26.212,-18.344c0,-13.439 -13.914,-16.13 -29.933,-19.291c-14.077,-2.688 -44.659,-6.011 -44.659,-32.416c-0,-26.409 24.756,-34.474 44.013,-34.474c17.311,0 30.904,5.218 42.07,13.286l-4.046,5.533c-3.075,4.587 -7.928,5.377 -12.947,3.002c-8.412,-4.109 -16.665,-6.322 -26.05,-6.322c-9.869,0 -24.432,3.951 -24.432,18.185c-0,13.756 20.062,15.969 33.171,18.341c17.476,2.847 41.425,7.431 41.425,33.525c-0,23.087 -18.125,34.471 -44.176,34.471c-21.846,0 -36.571,-6.483 -49.028,-15.972" style="fill:#fff;fill-rule:nonzero;"/><path d="M2307.89,1246.83c24.435,0 42.719,-20.239 42.719,-44.593c-0,-23.876 -18.284,-44.593 -42.719,-44.593c-24.27,-0 -42.394,20.559 -42.394,44.593c-0,24.192 18.124,44.593 42.394,44.593m-61,-44.593c0,-33.05 25.078,-60.246 61,-60.246c36.085,0 61.327,27.196 61.327,60.246c0,33.208 -25.242,60.245 -61.327,60.245c-35.922,0 -61,-27.037 -61,-60.245" style="fill:#fff;fill-rule:nonzero;"/><path d="M2398.84,1144.36l9.547,-0c5.502,-0 9.223,3.478 9.223,9.013l0,91.555l51.294,0c5.502,0 9.223,3.637 9.223,9.013l-0,6.167l-79.287,-0l-0,-115.748Z" style="fill:#fff;fill-rule:nonzero;"/><path d="M2498.68,1213.94l-0,-69.575l9.385,-0c5.664,-0 9.223,3.481 9.223,9.013l-0,59.928c-0,26.567 19.903,33.365 31.877,33.365c11.65,-0 31.715,-6.798 31.715,-33.365l-0,-59.928c-0,-5.532 3.721,-9.013 9.223,-9.013l9.223,-0l-0,69.575c-0,29.414 -19.741,48.389 -50.161,48.389c-30.258,-0 -50.485,-18.975 -50.485,-48.389" style="fill:#fff;fill-rule:nonzero;"/><path d="M2628.95,1202.39c-0,-33.678 24.918,-60.087 61.002,-60.087c23.946,0 40.29,10.275 50.324,26.247l-8.416,3.954c-5.015,2.371 -8.09,0.633 -11.649,-2.53c-7.445,-7.273 -17.152,-12.016 -30.259,-12.016c-26.537,0 -42.394,20.239 -42.394,44.432c-0,24.196 16.02,44.435 43.04,44.435c14.563,-0 22.33,-4.902 29.613,-12.177c3.396,-3.003 6.634,-4.426 11.974,-2.055l8.253,3.637c-9.385,15.813 -23.465,26.247 -50.486,26.247c-36.084,-0 -61.002,-26.406 -61.002,-60.087" style="fill:#fff;fill-rule:nonzero;"/><path d="M2770.06,1250.47l0,-106.104l9.386,0c5.502,0 9.223,3.478 9.223,9.011l-0,106.737l-9.385,0c-5.827,0 -9.224,-3.478 -9.224,-9.644" style="fill:#fff;fill-rule:nonzero;"/><path d="M2881.07,1246.83c24.435,0 42.716,-20.239 42.716,-44.593c0,-23.876 -18.281,-44.593 -42.716,-44.593c-24.272,-0 -42.394,20.559 -42.394,44.593c0,24.192 18.122,44.593 42.394,44.593m-61.002,-44.593c-0,-33.05 25.08,-60.246 61.002,-60.246c36.082,0 61.325,27.196 61.325,60.246c-0,33.208 -25.243,60.245 -61.325,60.245c-35.922,0 -61.002,-27.037 -61.002,-60.245" style="fill:#fff;fill-rule:nonzero;"/><path d="M2972.01,1144.36l6.472,-0l78.155,80.012l-0,-70.682c-0,-5.694 3.721,-9.33 9.547,-9.33l9.058,-0l0,115.748l-6.634,-0l-77.99,-80.012l0,70.682c0,5.693 -3.721,9.33 -9.385,9.33l-9.223,-0l-0,-115.748Z" style="fill:#fff;fill-rule:nonzero;"/><path d="M3110.21,1144.36l83.333,-0l-0,6.483c-0,5.535 -3.235,8.696 -9.061,8.696l-55.661,0l0,35.897l50.969,0l0,6.167c0,5.691 -3.237,8.852 -9.063,8.852l-41.906,-0l0,34.473l55.501,0c5.662,0 9.221,3.637 9.221,9.013l-0,6.167l-83.333,-0l0,-115.748Z" style="fill:#fff;fill-rule:nonzero;"/><path d="M3208.92,1246.51l4.046,-5.693c3.075,-4.585 7.766,-5.06 12.944,-2.372c9.226,5.06 20.23,8.541 31.393,8.541c16.828,-0 26.213,-7.273 26.213,-18.344c0,-13.439 -13.917,-16.13 -29.934,-19.291c-14.076,-2.688 -44.662,-6.011 -44.662,-32.416c0,-26.409 24.76,-34.474 44.014,-34.474c17.314,0 30.907,5.218 42.073,13.286l-4.049,5.533c-3.072,4.587 -7.925,5.377 -12.944,3.002c-8.415,-4.109 -16.668,-6.322 -26.05,-6.322c-9.872,0 -24.435,3.951 -24.435,18.185c-0,13.756 20.065,15.969 33.171,18.341c17.476,2.847 41.425,7.431 41.425,33.525c-0,23.087 -18.122,34.471 -44.173,34.471c-21.846,0 -36.571,-6.483 -49.032,-15.972" style="fill:#fff;fill-rule:nonzero;"/><path d="M3404.4,1159.54l-34.952,0l0,-6.169c0,-5.532 3.559,-9.01 9.223,-9.01l79.609,-0l-0,6.163c-0,5.38 -3.722,9.016 -9.221,9.016l-26.05,0l-0,91.558c-0,5.533 -3.721,9.011 -9.226,9.011l-9.383,-0l0,-100.569Z" style="fill:#fff;fill-rule:nonzero;"/><path d="M3479.65,1144.36l83.332,-0l-0,6.483c-0,5.535 -3.235,8.696 -9.061,8.696l-55.66,0l-0,35.897l50.969,0l-0,6.167c-0,5.691 -3.238,8.852 -9.064,8.852l-41.905,-0l-0,34.473l55.501,0c5.661,0 9.22,3.637 9.22,9.013l-0,6.167l-83.332,-0l-0,-115.748Z" style="fill:#fff;fill-rule:nonzero;"/><path d="M3579.17,1202.39c-0,-33.678 24.918,-60.087 61.003,-60.087c23.948,0 40.289,10.275 50.323,26.247l-8.415,3.954c-5.013,2.371 -8.091,0.633 -11.647,-2.53c-7.445,-7.273 -17.155,-12.016 -30.261,-12.016c-26.537,0 -42.395,20.239 -42.395,44.432c0,24.196 16.02,44.435 43.043,44.435c14.56,-0 22.33,-4.902 29.613,-12.177c3.394,-3.003 6.634,-4.426 11.971,-2.055l8.253,3.637c-9.385,15.813 -23.465,26.247 -50.485,26.247c-36.085,-0 -61.003,-26.406 -61.003,-60.087" style="fill:#fff;fill-rule:nonzero;"/><path d="M3718.34,1144.36l6.47,-0l78.157,80.012l0,-70.682c0,-5.694 3.721,-9.33 9.548,-9.33l9.058,-0l-0,115.748l-6.635,-0l-77.989,-80.012l-0,70.682c-0,5.693 -3.721,9.33 -9.385,9.33l-9.224,-0l0,-115.748Z" style="fill:#fff;fill-rule:nonzero;"/><path d="M3912.2,1246.83c24.435,0 42.716,-20.239 42.716,-44.593c-0,-23.876 -18.281,-44.593 -42.716,-44.593c-24.273,-0 -42.398,20.559 -42.398,44.593c0,24.192 18.125,44.593 42.398,44.593m-61.003,-44.593c-0,-33.05 25.08,-60.246 61.003,-60.246c36.084,0 61.327,27.196 61.327,60.246c0,33.208 -25.243,60.245 -61.327,60.245c-35.923,0 -61.003,-27.037 -61.003,-60.245" style="fill:#fff;fill-rule:nonzero;"/><path d="M4003.15,1144.36l9.544,-0c5.502,-0 9.223,3.478 9.223,9.013l0,91.555l51.294,0c5.505,0 9.226,3.637 9.226,9.013l-0,6.167l-79.287,-0l-0,-115.748Z" style="fill:#fff;fill-rule:nonzero;"/><path d="M4154.13,1119.54c3.235,-4.429 7.604,-5.535 12.782,-3.322l8.577,3.636l-13.755,11.068c-3.559,2.847 -6.955,3.956 -11.487,3.956l-7.442,-0l11.325,-15.338Zm-0.97,127.291c24.435,-0 42.716,-20.239 42.716,-44.59c-0,-23.879 -18.281,-44.594 -42.716,-44.594c-24.273,0 -42.397,20.556 -42.397,44.594c-0,24.189 18.124,44.59 42.397,44.59m-61.003,-44.59c0,-33.051 25.081,-60.246 61.003,-60.246c36.085,0 61.327,27.195 61.327,60.246c0,33.205 -25.242,60.245 -61.327,60.245c-35.922,-0 -61.003,-27.04 -61.003,-60.245" style="fill:#fff;fill-rule:nonzero;"/><path d="M4358.99,1208.4c-1.136,30.045 -23.138,54.079 -59.222,54.079c-34.791,-0 -61.006,-27.037 -61.006,-60.087c-0,-33.05 27.348,-60.245 61.006,-60.245c20.065,-0 37.541,9.485 48.704,23.875l-7.929,4.429c-4.691,2.527 -8.253,1.738 -12.622,-1.899c-7.602,-6.797 -17.314,-10.753 -28.153,-10.753c-23.952,-0 -42.557,20.559 -42.557,44.593c-0,23.72 17.476,43.959 42.07,44.435c22.005,0.314 39.644,-12.967 41.1,-32.102l-34.952,-0c-5.824,-0 -9.223,-3.003 -9.223,-8.855l-0,-7.273l62.459,0c0.325,3.32 0.325,7.431 0.325,9.803" style="fill:#fff;fill-rule:nonzero;"/><path d="M4388.78,1250.47l0,-106.104l9.386,0c5.502,0 9.223,3.478 9.223,9.011l-0,106.737l-9.383,0c-5.826,0 -9.226,-3.478 -9.226,-9.644" style="fill:#fff;fill-rule:nonzero;"/><path d="M4438.78,1202.39c-0,-33.678 24.918,-60.087 61.003,-60.087c23.948,0 40.289,10.275 50.323,26.247l-8.415,3.954c-5.013,2.371 -8.091,0.633 -11.647,-2.53c-7.445,-7.273 -17.155,-12.016 -30.261,-12.016c-26.537,0 -42.395,20.239 -42.395,44.432c0,24.196 16.02,44.435 43.043,44.435c14.56,-0 22.33,-4.902 29.613,-12.177c3.394,-3.003 6.634,-4.426 11.971,-2.055l8.253,3.637c-9.385,15.813 -23.465,26.247 -50.485,26.247c-36.085,-0 -61.003,-26.406 -61.003,-60.087" style="fill:#fff;fill-rule:nonzero;"/><path d="M4648.34,1224.53l-24.435,-50.918l-24.27,50.918l48.705,-0Zm-27.345,-80.171l5.823,0l58.898,115.748l-13.269,0c-4.691,0 -8.412,-2.213 -10.517,-6.325l-7.605,-15.652l-60.678,0l-7.767,15.652c-1.94,4.112 -5.826,6.325 -10.517,6.325l-13.11,0l58.742,-115.748Z" style="fill:#fff;fill-rule:nonzero;"/><path d="M4695.11,1246.51l4.045,-5.693c3.075,-4.585 7.766,-5.06 12.944,-2.372c9.226,5.06 20.23,8.541 31.393,8.541c16.828,-0 26.213,-7.273 26.213,-18.344c0,-13.439 -13.917,-16.13 -29.934,-19.291c-14.076,-2.688 -44.661,-6.011 -44.661,-32.416c-0,-26.409 24.759,-34.474 44.013,-34.474c17.314,0 30.907,5.218 42.073,13.286l-4.049,5.533c-3.072,4.587 -7.928,5.377 -12.944,3.002c-8.415,-4.109 -16.668,-6.322 -26.053,-6.322c-9.869,0 -24.432,3.951 -24.432,18.185c-0,13.756 20.065,15.969 33.171,18.341c17.476,2.847 41.425,7.431 41.425,33.525c-0,23.087 -18.122,34.471 -44.173,34.471c-21.846,0 -36.571,-6.483 -49.031,-15.972" style="fill:#fff;fill-rule:nonzero;"/></g><g><path d="M419.2,1097.01l-220.992,0l-0,-932.415l143.692,-0l77.26,-163.726l-419.16,-0l-0,1261.61l341.119,-0l78.081,-165.466Z" style="fill:#fff;fill-rule:nonzero;"/><path d="M1186.55,-0l-62.041,-0l-116.073,234.059c-108.812,-153.493 -290.704,-233.19 -517.224,-233.19l-6.436,-0l-75.716,163.728l63.195,0c138.402,0 354.62,53.361 425.002,293.66l-311.127,627.389c-35.484,7.226 -69.987,10.513 -101.233,11.192l-76.6,165.637l82.915,0c14.165,0.067 28.083,-0.301 41.886,-0.868l105.373,-0c44.423,-0 81.945,-19.147 104.279,-54.848c20.423,-27.727 27.86,-55.574 27.86,-55.574l0.006,-0.009l45.517,-93.872l56.129,-125.929l226.996,-490.857c-0.045,-0.193 -0.099,-0.377 -0.144,-0.57l56.415,-121.11l260.245,554.972l-0.741,0l106.957,237.612l38.571,81.242c22.401,44.817 62.037,68.943 112.027,68.943l141.324,-0l-627.362,-1261.61Z" style="fill:#e41e2f;fill-rule:nonzero;"/></g></g></svg>